<svg viewBox="0 0 497.29 497.29" width="32" height="32" xmlns="http://www.w3.org/2000/svg"><path d="m.24 183.67c-.39-3.17-.29-6.39.18-9.56 2.65-17.88 11.68-33.65 19.3-49.9 16.93-36.13 33.92-72.23 51.07-108.25 5.13-10.78 14.05-16.38 26.02-15.94 13.23.49 20.52 8.82 25.83 20.14 22.37 47.7 45.07 95.23 67.5 142.91 4.23 8.99 2.7 17.86-3.26 25.57-8.72 11.29-21.76 14.65-33.57 9.67-39.82-16.8-78.8-11.64-118.38.12-17.8 5.29-31.46-.69-34.36-12.81-.15-.64-.26-1.29-.34-1.95z" fill="#030203"/><path d="m138.42 460.97c-.46 19.49-19.85 36.16-40.38 36.32-24.35.19-44.75-14.77-45.06-35.59-.87-57.35-1.21-114.74-.35-172.09.37-24.64 20.82-40.31 46.79-39.16 22.54 1 39.68 19.64 39.68 43.17" fill="#030203"/><path d="m175.95 169.86c1.14 3.24.9 6.89-.92 9.81-2.38 3.83-6.32 5.15-11.97 4.03-21.37-4.22-41.96-12.19-63.98-13.36-24.67-1.31-46.97 9.97-70.75 13.41-4.62.67-8.77.98-11.95-3.1-3.24-4.16-2.09-8.27-.05-12.58 22.34-47.04 44.57-94.12 66.88-141.17 2.31-4.87 6.02-8.14 11.71-8.35 5.92-.22 10.23 2.44 12.77 7.76 22.51 47.17 45 94.36 67.46 141.56.31.65.57 1.32.81 2z" fill="#fefefe"/><path d="m68.64 290.38c.32-15.06 13.36-25.04 29.54-24.27 14.02.67 25.04 12.34 25.01 26.58-.11 54.72.03 109.45-.53 164.16-.15 15.03-13.42 25-29.7 24.24-13.8-.64-24.84-12.44-24.84-26.56 0-26.74 0-53.48 0-80.21" fill="#87dafd"/></svg>