<svg viewBox="0 0 418.86 418.86" width="32" height="32" xmlns="http://www.w3.org/2000/svg"><path d="m20.89.3c5.48-.95 14.08.44 19.06 2.93 3.68 1.84 6.98 3.56 10.03 5.2 36.21 19.48 68.36 45.73 94.92 77.12 27.51 32.52 51.44 68.09 77.52 101.79 37.81 48.85 74.7 98.42 111.67 147.91 9.07 12.14 5.95 28.81-6.56 38.58-16.38 12.8-32.91 25.44-49.73 37.65-18.29 13.28-31.82 8.89-49.94-15.11-56.94-75.44-114.36-150.53-170.75-226.38-22.24-29.91-40.12-62.04-50.81-97.72-3.37-11.24-5.39-22.84-6.11-34.54-.58-9.63-.19-18.31 6.27-27.96 3.29-4.91 8.39-8.38 14.21-9.43.07-.01.14-.03.22-.04z" fill="#020201"/><path d="m12.82 48.44c-1.37-7.05-1.93-14.24-1.82-21.42 0-.09 0-.17 0-.26.21-13.6 10.8-20.82 23.4-15.7 4.16 1.69 8.14 4.17 12 6.42 62.98 36.62 106 92.97 148.33 150.1 37.14 50.12 74.96 99.73 112.4 149.63 17.57 23.41 14.09 52.64-8.15 70.23-23.63 18.68-51.71 16.04-70.49-8.11-59.72-76.78-118.33-154.41-174.37-233.92-19.43-27.59-35.61-67.67-41.3-96.97z" fill="#fefefe"/><path d="m272.24 316.81c14.35.12 24.95 11.13 24.87 25.84-.11 18.5-17.97 36.3-36.13 36.01-14.8-.23-25.39-11.17-25.25-26.07.17-18.63 17.84-35.94 36.51-35.79z" fill="#84defe"/><path d="m72.35 130.19c15.08-6.47 28.78-16.62 38.58-31.57.15-.23.26-.48.33-.76.59-2.13-1.16-4.33-3.37-4.2-.28.02-.54.07-.79.17-16.32 6.67-29.03 16.7-38.58 31.57" fill="#020201"/></svg>