<svg viewBox="0 0 559.43 559.43" width="32" height="32" xmlns="http://www.w3.org/2000/svg"><path d="m162.58 164.32c.33 4.23 4.83 4.38 6.92 1.73h.01c.54-.7.95-1.46 1.23-2.29 4.15-12.43 7.97-26.1 17.31-36.71 17.86-20.3 40.83-26.4 66.73-24.13 33.53 2.94 60.21 24.72 67.64 55.49 1.69 6.99 1.93 14.41 2.16 21.65.34 10.7 6.82 14.81 16.39 9.95 34.93-17.74 70.52-7.48 86.37 25.26 8.51 17.6 8.81 36.25-2.63 51.84-9.97 13.58-6.99 24.21-1.43 37.88 21.63 53.12 30.55 107.74 17.07 164.84-11.8 49.97-57.33 88.28-109.25 88.84-46.43.5-92.89-1.02-139.32-.59-31.64.29-63.41 4.56-94.59-3.84-58.48-15.72-93.2-60.7-96.77-121.14-2.45-41.42 6.63-81.66 9.01-122.54 1.81-31.03 4.33-62.04 5.31-93.1 1.06-33.41.9-66.86.86-100.3-.02-19.05-1.53-38.73 1.12-57.35 1.32-9.28 4.07-18.34 8.69-26.5 11.55-20.43 31.12-31.69 54.99-33.13 42.9-2.58 75.16 22.49 79.09 67.68"/><path d="m223.92 531.15c-40.45 0-81 1.89-121.3-.53-40.61-2.44-71.94-37.61-73.68-78.38-2.05-48.06 1.02-95.59 21.73-140.03 34.29-73.59 87.6-122.5 172.73-124.96 53.35-1.54 97.53 21.62 132.75 60.71 56.36 62.55 71.2 137.84 60.67 218.64-4.95 37.98-42.1 65.17-80.5 65.17-37.46 0-74.92 0-112.39 0 0-.21 0-.42 0-.63z" fill="#8adafe"/><g fill="#fefefe"><path d="m41.11 169.48c0-33.02-.66-66.06.21-99.06.68-25.93 23.29-45.48 49.64-44.84 22.33.54 42.45 22.52 42.52 47.06.09 32.96-.21 65.92-.37 98.87-.03 6.92-3.03 12.4-8.88 16.02-33.29 20.59-59.97 47.76-81.1 80.54-.44.69-.91 1.36-1.43 1.99-.59.72-.84.92-2.98 2.38"/><path d="m296.78 164.94c.33.64.57 1.33.6 2.05.11 2.61-2.24 2.31-5.29 1.94-27.84-3.38-55.77-6.15-83.54-10.04-8.35-1.17-6.64-4.82-4.15-8s5.79-6.03 9.35-8.23c10.64-6.56 30.98-16.31 49.78-11.63 18.95 4.72 27.42 22.74 33.26 33.91z"/><path d="m405.61 237.08c.16 1.68.28 3.31.3 5 .05 4.72.07 11.25-5.38 13.19-5.98 2.13-8.81-5.24-12.16-9.23-9-10.7-17.77-21.61-26.33-32.67-2.1-2.71-1.6-5.77 2.55-6.81 18-4.52 39.23 11.5 41.03 30.53z"/></g><path d="m87.14 103.5c-16.41-.02-29.37-13.17-29.35-29.77.02-16.15 13.35-29.28 29.71-29.25 16.1.03 29.33 13.26 29.34 29.34 0 16.67-13.03 29.7-29.69 29.68z"/></svg>