<svg viewBox="0 0 451.23 451.23" width="32" height="32" xmlns="http://www.w3.org/2000/svg"><path d="m.19 81.79c.06-18.88-.64-35.6 5.03-56.28 8.54-31.14 50.73-32.66 75.25-10.6 43.95 39.55 89.17 77.7 133.32 117.03 27.24 24.27 57.51 45.35 81.31 73.22 11.9 13.94 17.16 31.8 10.66 50.03-6.66 18.7-23.66 24.37-41.35 27.1-10.82 1.67-21.95 1.32-32.83 2.69-8.07 1.02-10.26 6.46-6.5 13.43 15.52 28.75 31.64 57.33 40.11 89.11 6.53 24.49-12.63 50.83-41.82 59.82-34.87 10.74-57.65-.39-76.99-38.6-9.57-18.91-18.13-38.34-26.88-57.65-4.28-9.44-12.52-9.75-21.98-1.01-14.33 13.23-29.02 26.1-48.52 31.27-27.52 7.29-45.76-21.63-47.76-42.36-2.41-24.96-.57-50.34-.57-75.54" fill="#030303"/><path d="m16.75 48.88c-.09-13.78 3.52-25.01 16.89-30.71 13.13-5.6 23.45.1 33.4 8.8 65.42 57.17 131.12 114.01 196.53 171.2 7.91 6.92 15.99 13.36 22.98 21.51 2.98 3.47 5.19 7.57 6.06 12.06 3.03 15.73-9.41 29.29-30.29 32.37-34.84 5.13-69.73 10.32-104.23 17.28-15.61 3.15-25.3 17.59-37.46 27.13-20.35 15.98-39.95 32.94-60.31 48.9-10.2 8-24.72 8.32-34.74.11-6.21-5.09-9.37-12.15-9.38-20.75" fill="#fefefe"/><path d="m211.26 435.67c-4.45.59-8.99.47-13.37-.48-16.74-3.65-26.75-16.94-34.51-33.54-9.97-21.3-20.87-42.16-31.07-63.35-5.47-11.37-2.52-20.71 8.73-26.58 13.62-7.1 27.41-13.91 41.33-20.42 8.65-4.05 17.99-2.5 22.3 5.55 15.08 28.19 31.43 56.03 41.64 86.35 8.34 24.77-9.06 49.02-35.05 52.48z" fill="#8adafe"/><g fill="#030303"><path d="m221.58 385.91c-.16 12.05-7.55 19.22-19.51 19.04-12.03-.18-19-7.74-18.81-19.72"/><path d="m183.25 385.27c.16-12.05 7.55-19.22 19.51-19.04 12.03.18 19 7.74 18.81 19.72"/></g></svg>